<svg xmlns="http://www.w3.org/2000/svg" xmlns:xlink="http://www.w3.org/1999/xlink" width="500" zoomAndPan="magnify" viewBox="0 0 375 374.999991" height="500" preserveAspectRatio="xMidYMid meet" version="1.0"><defs><g/></defs><rect x="-37.5" width="450" fill="#ffffff" y="-37.499999" height="449.999989" fill-opacity="1"/><rect x="-37.5" width="450" fill="#ffffff" y="-37.499999" height="449.999989" fill-opacity="1"/><rect x="-37.5" width="450" fill="#fcffff" y="-37.499999" height="449.999989" fill-opacity="1"/><g fill="#01040f" fill-opacity="1"><g transform="translate(28.908716, 190.121047)"><g><path d="M 0.304688 0 L 4.320312 0 L 6.546875 -4.960938 L 19.339844 -4.960938 L 21.601562 0 L 25.617188 0 L 15.019531 -23.625 L 10.902344 -23.625 Z M 7.964844 -8.402344 L 12.960938 -19.640625 L 17.953125 -8.402344 Z M 7.964844 -8.402344 "/></g></g></g><g fill="#01040f" fill-opacity="1"><g transform="translate(54.828759, 190.121047)"><g><path d="M 2.96875 0 L 11.914062 0 C 20.113281 0 23.761719 -5.871094 23.761719 -11.777344 C 23.761719 -17.71875 20.082031 -23.625 11.914062 -23.625 L 2.96875 -23.625 Z M 6.714844 -3.644531 L 6.714844 -20.015625 L 11.914062 -20.015625 C 17.582031 -20.015625 20.015625 -15.828125 20.015625 -11.8125 C 20.015625 -7.730469 17.582031 -3.644531 11.914062 -3.644531 Z M 6.714844 -3.644531 "/></g></g></g><g fill="#01040f" fill-opacity="1"><g transform="translate(80.141303, 190.121047)"><g><path d="M 2.96875 0 L 6.75 0 L 6.75 -8.167969 L 11.746094 -8.167969 L 18.933594 0 L 23.355469 0 L 22.949219 -0.675781 L 15.894531 -8.539062 C 20.554688 -9.179688 22.308594 -12.554688 22.308594 -15.894531 C 22.308594 -19.878906 19.441406 -23.625 13.972656 -23.625 L 2.96875 -23.625 Z M 6.75 -11.609375 L 6.75 -20.148438 L 13.972656 -20.148438 C 17.078125 -20.148438 18.460938 -17.953125 18.460938 -15.828125 C 18.460938 -13.566406 17.042969 -11.609375 13.9375 -11.609375 Z M 6.75 -11.609375 "/></g></g></g><g fill="#01040f" fill-opacity="1"><g transform="translate(104.475091, 190.121047)"><g><path d="M 2.96875 0 L 6.714844 0 L 6.714844 -23.625 L 2.96875 -23.625 Z M 2.96875 0 "/></g></g></g><g fill="#01040f" fill-opacity="1"><g transform="translate(114.161358, 190.121047)"><g><path d="M 0.304688 0 L 4.320312 0 L 6.546875 -4.960938 L 19.339844 -4.960938 L 21.601562 0 L 25.617188 0 L 15.019531 -23.625 L 10.902344 -23.625 Z M 7.964844 -8.402344 L 12.960938 -19.640625 L 17.953125 -8.402344 Z M 7.964844 -8.402344 "/></g></g></g><g fill="#01040f" fill-opacity="1"><g transform="translate(140.081401, 190.121047)"><g><path d="M 2.96875 0 L 6.785156 0 L 6.785156 -16.671875 L 20.183594 0 L 23.050781 0 L 23.050781 -23.625 L 19.269531 -23.625 L 19.269531 -6.816406 L 5.871094 -23.625 L 2.96875 -23.625 Z M 2.96875 0 "/></g></g></g><g fill="#01040f" fill-opacity="1"><g transform="translate(166.102689, 190.121047)"><g><path d="M 11.203125 0.472656 C 16.132812 0.472656 20.992188 -1.519531 20.992188 -6.816406 C 20.992188 -12.046875 16.367188 -13.363281 11.507812 -14.074219 C 8.402344 -14.511719 5.769531 -15.152344 5.769531 -17.449219 C 5.769531 -19.472656 8.066406 -20.789062 11.238281 -20.789062 C 13.703125 -20.789062 15.964844 -19.777344 17.078125 -18.125 L 19.945312 -20.046875 C 17.953125 -23.21875 14.546875 -24.03125 11.136719 -24.03125 C 6.816406 -24.03125 2.023438 -22.039062 2.023438 -17.515625 C 2.023438 -12.453125 6.480469 -11.304688 11.171875 -10.632812 C 14.511719 -10.160156 17.210938 -9.246094 17.210938 -6.816406 C 17.210938 -3.8125 14.074219 -2.902344 11.238281 -2.902344 C 8.503906 -2.902344 5.601562 -3.914062 3.882812 -6.785156 L 1.046875 -4.894531 C 3.207031 -0.910156 6.648438 0.472656 11.203125 0.472656 Z M 11.203125 0.472656 "/></g></g></g><g fill="#01040f" fill-opacity="1"><g transform="translate(188.377731, 190.121047)"><g><path d="M 13.601562 0.472656 C 21.800781 0.472656 25.683594 -5.367188 25.683594 -11.710938 C 25.683594 -18.054688 21.734375 -24.03125 13.667969 -24.03125 C 6.546875 -24.03125 1.519531 -18.832031 1.519531 -11.675781 C 1.519531 -5.5 5.398438 0.472656 13.601562 0.472656 Z M 13.601562 -3.003906 C 7.730469 -3.003906 5.265625 -7.457031 5.265625 -11.644531 C 5.265625 -16.773438 8.167969 -20.585938 13.667969 -20.585938 C 19.472656 -20.585938 21.9375 -15.996094 21.9375 -11.644531 C 21.9375 -7.1875 19.472656 -3.003906 13.601562 -3.003906 Z M 13.601562 -3.003906 "/></g></g></g><g fill="#01040f" fill-opacity="1"><g transform="translate(215.580278, 190.121047)"><g><path d="M 2.96875 0 L 19.203125 0 L 19.203125 -3.511719 L 6.75 -3.511719 L 6.75 -23.625 L 2.96875 -23.625 Z M 2.96875 0 "/></g></g></g><g fill="#01040f" fill-opacity="1"><g transform="translate(235.391567, 190.121047)"><g><path d="M 13.601562 0.472656 C 21.800781 0.472656 25.683594 -5.367188 25.683594 -11.710938 C 25.683594 -18.054688 21.734375 -24.03125 13.667969 -24.03125 C 6.546875 -24.03125 1.519531 -18.832031 1.519531 -11.675781 C 1.519531 -5.5 5.398438 0.472656 13.601562 0.472656 Z M 13.601562 -3.003906 C 7.730469 -3.003906 5.265625 -7.457031 5.265625 -11.644531 C 5.265625 -16.773438 8.167969 -20.585938 13.667969 -20.585938 C 19.472656 -20.585938 21.9375 -15.996094 21.9375 -11.644531 C 21.9375 -7.1875 19.472656 -3.003906 13.601562 -3.003906 Z M 13.601562 -3.003906 "/></g></g></g><g fill="#01040f" fill-opacity="1"><g transform="translate(262.594126, 190.121047)"><g><path d="M 2.96875 0.0351562 L 6.75 0.0351562 L 6.75 -18.125 L 14.679688 -6.953125 L 15.492188 -6.953125 L 23.523438 -18.125 L 23.523438 0.0351562 L 27.304688 0.0351562 L 27.304688 -23.625 L 22.917969 -23.625 L 15.152344 -12.554688 L 7.359375 -23.625 L 2.96875 -23.625 Z M 2.96875 0.0351562 "/></g></g></g><g fill="#01040f" fill-opacity="1"><g transform="translate(292.867912, 190.121047)"><g><path d="M 13.601562 0.472656 C 21.800781 0.472656 25.683594 -5.367188 25.683594 -11.710938 C 25.683594 -18.054688 21.734375 -24.03125 13.667969 -24.03125 C 6.546875 -24.03125 1.519531 -18.832031 1.519531 -11.675781 C 1.519531 -5.5 5.398438 0.472656 13.601562 0.472656 Z M 13.601562 -3.003906 C 7.730469 -3.003906 5.265625 -7.457031 5.265625 -11.644531 C 5.265625 -16.773438 8.167969 -20.585938 13.667969 -20.585938 C 19.472656 -20.585938 21.9375 -15.996094 21.9375 -11.644531 C 21.9375 -7.1875 19.472656 -3.003906 13.601562 -3.003906 Z M 13.601562 -3.003906 "/></g></g></g><g fill="#01040f" fill-opacity="1"><g transform="translate(320.070471, 190.121047)"><g><path d="M 2.96875 0 L 6.785156 0 L 6.785156 -16.671875 L 20.183594 0 L 23.050781 0 L 23.050781 -23.625 L 19.269531 -23.625 L 19.269531 -6.816406 L 5.871094 -23.625 L 2.96875 -23.625 Z M 2.96875 0 "/></g></g></g></svg>